<?xml version="1.0" standalone="no"?>
<!DOCTYPE svg PUBLIC "-//W3C//DTD SVG 20010904//EN"
 "http://www.w3.org/TR/2001/REC-SVG-20010904/DTD/svg10.dtd">
<svg version="1.0" xmlns="http://www.w3.org/2000/svg"
 width="257.000000pt" height="102.000000pt" viewBox="0 0 257.000000 102.000000"
 preserveAspectRatio="xMidYMid meet">
<metadata>
Created by potrace 1.16, written by Peter Selinger 2001-2019
</metadata>
<g transform="translate(0.000000,102.000000) scale(0.100000,-0.100000)"
fill="#000000" stroke="none">
<path d="M685 910 c-14 -15 -31 -20 -70 -20 -68 0 -116 -10 -109 -22 4 -6 -2
-7 -16 -3 -15 5 -20 3 -16 -3 3 -6 2 -13 -4 -17 -5 -3 -10 -2 -10 3 0 5 -17 9
-37 10 -33 1 -35 0 -18 -10 30 -16 30 -17 9 -33 -22 -17 -38 -19 -29 -4 11 17
-110 -48 -126 -67 -10 -13 -5 -12 15 4 39 30 45 20 12 -18 -14 -17 -26 -36
-26 -42 0 -5 18 13 41 42 22 28 43 49 47 46 3 -3 -5 -17 -18 -31 -12 -13 -33
-41 -46 -62 -13 -21 -24 -31 -24 -23 0 8 -9 -4 -20 -28 -10 -23 -23 -41 -27
-40 -4 2 -9 0 -11 -4 -1 -5 -9 -26 -18 -48 -22 -56 -13 -59 15 -6 13 24 32 48
43 55 16 10 20 8 28 -15 6 -14 23 -31 40 -37 34 -13 40 -27 11 -27 -11 0 -31
14 -45 31 -16 19 -26 25 -26 16 0 -22 58 -67 86 -67 36 0 62 16 117 68 31 31
47 55 47 72 0 32 14 55 29 46 13 -8 15 -43 2 -50 -4 -3 -11 -23 -14 -43 -4
-21 -22 -62 -42 -91 -19 -30 -35 -58 -35 -62 0 -5 -15 -25 -34 -45 -27 -28
-41 -36 -63 -33 -20 2 -29 9 -31 26 -3 16 -10 22 -28 22 -14 0 -27 -7 -30 -15
-11 -28 -27 -16 -20 16 5 27 3 30 -17 27 -17 -2 -23 -11 -25 -35 -4 -37 8 -45
95 -62 45 -9 59 -8 100 10 26 11 56 28 66 36 16 15 17 13 18 -28 l1 -44 10 49
c5 29 20 62 36 81 15 17 43 60 62 97 28 55 40 68 70 78 50 17 129 76 140 106
24 63 -5 135 -65 160 -31 13 -34 17 -25 34 14 25 8 25 -15 0z m-216 -165 c15
-55 -12 -137 -59 -180 -20 -18 -22 -18 -31 -2 -6 9 -20 22 -32 28 -22 12 -22
12 -3 -10 11 -11 16 -24 13 -28 -7 -7 -47 25 -45 36 1 3 -2 14 -7 25 -14 32 9
70 73 119 35 26 67 47 72 47 5 0 13 -16 19 -35z"/>
<path d="M1218 828 c-9 -7 -24 -30 -33 -50 -12 -26 -24 -38 -39 -39 -18 0 -18
-2 -4 -7 15 -6 16 -10 3 -32 -28 -51 -45 -93 -45 -115 0 -12 -6 -28 -14 -34
-8 -6 -16 -20 -19 -31 -4 -16 -2 -17 13 -8 23 14 50 -4 50 -34 0 -16 5 -18 35
-12 28 5 35 3 35 -10 0 -9 -8 -16 -20 -16 -11 0 -20 -5 -20 -11 0 -5 -4 -7
-10 -4 -15 9 -12 -11 4 -24 7 -6 24 -10 37 -9 19 3 23 -2 25 -29 1 -18 -3 -33
-8 -33 -6 0 -5 -6 1 -14 9 -10 9 -21 3 -33 -7 -13 -6 -22 6 -33 14 -13 15 -12
9 5 -7 20 -7 20 8 0 10 -12 25 -19 40 -17 13 2 33 -2 44 -7 14 -8 22 -8 26 -1
4 6 14 10 23 9 50 -4 62 1 57 23 -3 13 -7 39 -9 58 -2 19 -7 42 -10 50 -3 8
-7 32 -9 53 -3 21 -8 42 -13 47 -5 4 -36 4 -69 -1 -54 -7 -95 -4 -118 8 -4 2
9 24 29 49 44 53 34 59 -12 7 -45 -52 -58 -36 -34 42 10 33 25 84 34 114 9 30
24 60 34 67 16 13 16 13 -1 14 -15 0 -17 6 -11 35 7 39 5 41 -18 23z"/>
<path d="M1617 823 c-4 -3 -7 -13 -7 -20 0 -8 -9 -33 -20 -55 -11 -23 -20 -49
-20 -58 0 -20 -28 -60 -42 -60 -6 0 -3 10 8 22 16 17 16 20 3 15 -15 -5 -15
-1 -3 40 19 63 18 73 -8 72 -13 -1 -31 2 -40 5 -13 6 -15 3 -11 -12 2 -11 -5
-42 -17 -70 -29 -67 -24 -106 13 -110 16 -2 39 4 52 12 33 22 38 20 30 -11 -5
-24 -62 -86 -118 -130 -21 -17 -12 -82 14 -105 17 -15 18 -19 4 -52 -8 -19
-15 -42 -15 -51 0 -19 29 -19 53 0 18 13 18 14 -1 17 -17 3 -18 7 -9 28 5 14
11 32 13 40 6 29 27 58 49 68 18 8 25 25 36 76 7 36 17 66 22 66 5 0 7 8 4 19
-2 11 3 24 14 32 20 14 27 35 7 23 -7 -4 -8 -3 -4 5 4 6 11 9 16 6 9 -6 63 60
73 90 6 15 2 14 -15 -7 -13 -15 -30 -37 -39 -50 -27 -37 -34 -13 -15 49 31
104 32 113 4 113 -14 0 -28 -3 -31 -7z"/>
<path d="M1276 738 c-3 -7 -4 -20 -4 -28 0 -8 -4 -26 -7 -40 -6 -21 -4 -20 14
8 27 41 56 45 39 5 -7 -16 -18 -37 -25 -48 -28 -42 -5 -99 34 -84 15 6 24 19
28 46 11 65 21 81 47 76 18 -3 27 1 35 19 13 30 -6 54 -24 29 -10 -14 -14 -14
-35 7 -27 24 -96 31 -102 10z"/>
<path d="M1018 663 c-6 -14 -68 -44 -68 -34 0 5 8 15 18 20 9 6 12 11 6 11
-34 1 -99 -111 -86 -149 2 -7 -2 -17 -9 -22 -19 -12 -35 -11 -23 1 18 18 4 90
-22 107 -22 14 -26 14 -59 -6 -43 -25 -52 -26 -35 -6 25 30 2 26 -28 -5 -59
-59 -61 -140 -5 -173 40 -23 74 -15 115 28 38 41 72 51 104 30 26 -17 80 -20
89 -5 3 6 0 10 -8 10 -8 0 -22 8 -31 19 -16 18 -15 20 34 56 57 42 71 76 45
105 -19 21 -31 25 -37 13z"/>
<path d="M2475 620 c-3 -5 -12 -7 -20 -3 -17 6 -63 -21 -83 -48 -12 -18 -14
-18 -50 1 -40 22 -80 25 -129 11 -26 -8 -33 -6 -36 7 -3 11 -5 9 -6 -6 -1 -20
-5 -23 -28 -18 -41 8 -99 -7 -94 -25 2 -8 5 -38 6 -67 2 -43 -1 -53 -14 -51
-37 3 -39 0 -29 -52 5 -28 7 -53 4 -56 -11 -12 -24 10 -30 52 -13 86 -79 124
-193 109 -47 -5 -53 -9 -48 -25 4 -11 2 -19 -4 -19 -10 0 -15 12 -12 35 0 6
-13 11 -29 12 -21 2 -28 -2 -24 -11 3 -8 -6 -18 -23 -24 -41 -14 -75 -50 -71
-75 3 -19 9 -21 63 -18 46 2 66 8 89 28 23 19 37 23 60 19 40 -8 55 -24 36
-37 -8 -5 -46 -19 -83 -30 -37 -12 -74 -27 -82 -35 -7 -8 -20 -14 -28 -14 -21
0 -50 -37 -44 -54 5 -12 17 -15 54 -11 31 4 41 2 29 -3 -29 -13 -5 -23 49 -20
25 0 40 5 34 9 -7 4 -18 5 -25 2 -28 -10 -32 9 -7 33 29 29 110 67 124 58 14
-8 11 -37 -8 -63 l-16 -24 54 6 c30 4 62 7 72 7 9 0 17 7 17 15 0 8 5 15 10
15 6 0 10 -4 10 -10 0 -5 5 -10 11 -10 8 0 9 11 5 31 -5 26 -3 30 10 25 9 -3
18 -6 20 -6 3 0 3 -4 -1 -10 -3 -5 6 -17 21 -26 22 -15 27 -15 35 -3 7 11 9
11 9 1 0 -10 4 -10 16 2 8 9 20 16 25 16 6 0 7 6 3 13 -6 9 -4 9 7 0 27 -26
32 -10 15 45 -13 41 -15 99 -4 130 11 30 16 33 43 28 36 -7 55 -30 55 -65 0
-50 11 -72 31 -66 24 8 25 -12 3 -36 -10 -11 -13 -23 -8 -31 9 -13 10 -18 13
-38 2 -15 37 -12 51 5 7 9 18 14 24 12 6 -3 20 0 31 6 19 10 19 10 0 18 -19 7
-19 8 3 8 29 1 32 41 2 41 -23 0 -27 18 -5 26 8 4 13 10 10 14 -9 14 5 38 25
43 27 7 37 65 13 82 -17 14 -17 14 2 15 11 0 26 -4 32 -8 14 -9 45 -101 37
-113 -2 -4 5 -13 17 -20 17 -9 24 -8 31 2 8 11 9 10 4 -3 -3 -10 -1 -20 4 -23
6 -4 10 47 10 133 0 136 -1 140 -22 146 -34 9 -66 7 -73 -4z"/>
<path d="M943 368 c-37 -7 -53 -14 -53 -25 0 -9 6 -13 15 -9 8 3 15 1 15 -4 0
-6 -11 -10 -25 -10 -14 0 -25 4 -25 10 0 5 -16 0 -36 -12 -31 -18 -35 -25 -32
-56 5 -57 41 -76 146 -80 119 -4 134 -8 130 -35 -2 -17 -12 -23 -38 -27 -34
-6 -34 -6 -8 -13 30 -8 61 0 52 14 -3 5 -1 9 5 9 5 0 12 -4 15 -9 3 -5 22 -9
41 -8 26 1 32 4 24 13 -7 9 -18 10 -34 4 -17 -7 -25 -5 -29 6 -4 11 4 14 37
14 51 0 63 7 69 41 4 21 -1 30 -24 43 -30 18 -37 36 -14 36 8 0 18 5 22 12 4
6 3 9 -2 6 -29 -16 -59 -21 -144 -24 -104 -4 -133 4 -111 30 15 18 72 21 88 5
18 -18 163 17 163 39 0 4 -8 8 -17 9 -10 1 -36 8 -58 17 -45 17 -95 18 -172 4z"/>
<path d="M1236 205 c4 -9 15 -20 25 -26 21 -11 17 -31 -5 -23 -7 3 -16 -2 -19
-11 -5 -12 -1 -14 18 -9 24 6 31 -5 26 -38 0 -5 6 -8 14 -8 17 0 20 -16 5 -25
-12 -8 20 -54 37 -55 9 0 11 11 8 34 -7 39 5 45 96 50 31 2 72 9 92 15 33 11
36 15 31 39 -4 15 -8 28 -10 30 -5 7 -44 -19 -40 -27 7 -11 -40 -35 -53 -26
-18 10 -2 27 20 20 11 -4 19 -2 19 4 0 6 -18 11 -41 11 -38 0 -41 2 -35 24 4
18 1 25 -14 29 -16 4 -20 0 -20 -17 0 -25 -17 -46 -37 -46 -7 0 -26 13 -41 29
-31 33 -85 52 -76 26z"/>
</g>
</svg>
